<svg xmlns="http://www.w3.org/2000/svg" width="256" height="256" viewBox="0 0 100 100"><rect width="100" height="100" rx="20" fill="#736bc1"></rect><path fill="#fff" d="M5.92 28.67L15.53 28.67L27.84 61.37L40.11 28.67L49.69 28.67L49.69 71.33L42.31 71.33L42.31 57.27L43.04 38.46L30.44 71.33L25.14 71.33L12.57 38.49L13.31 57.27L13.31 71.33L5.92 71.33L5.92 28.67ZM86.34 71.33L82.86 61.40L66.33 61.40L62.88 71.33L55.17 71.33L71.28 28.67L77.93 28.67L94.08 71.33L86.34 71.33ZM74.59 37.72L68.41 55.42L80.78 55.42L74.59 37.72Z"></path></svg>